<svg xmlns="http://www.w3.org/2000/svg" width="202" height="26" viewBox="0 0 202 26" id="systemd-logo">
    <!-- SPDX-License-Identifier: LGPL-2.1-or-later -->
    <path d="M0 0v26h10v-4H4V4h6V0zm76 0v4h6v18h-6v4h10V0z" fill="currentColor"/>
    <path d="M113.498 14.926q-4.5-.96-4.5-3.878 0-1.079.609-1.981.621-.902 1.781-1.441 1.16-.54 2.707-.54 1.63 0 2.848.528 1.219.516 1.875 1.453.656.926.656 2.121h-3.539q0-.762-.457-1.183-.457-.434-1.394-.434-.774 0-1.243.363-.457.364-.457.938 0 .55.516.89.527.34 1.781.575 1.5.28 2.543.738 1.043.445 1.653 1.242.62.797.62 2.027 0 1.114-.667 2.004-.657.88-1.887 1.383-1.219.504-2.836.504-1.711 0-2.965-.621-1.242-.633-1.898-1.617-.645-.985-.645-2.051h3.34q.036.914.656 1.36.621.433 1.594.433.902 0 1.383-.34.492-.351.492-.937 0-.364-.223-.61-.21-.258-.773-.48-.55-.223-1.57-.446zm19.384-7.606l-5.086 14.58q-.293.831-.726 1.523-.434.703-1.266 1.195-.832.504-2.098.504-.457 0-.75-.048-.281-.046-.785-.176v-2.672q.176.02.527.02.95 0 1.418-.293.47-.293.715-.961l.352-.926-4.43-12.738h3.797l2.262 7.687 2.285-7.687zm5.884 7.606q-4.5-.96-4.5-3.878 0-1.079.61-1.981.62-.902 1.781-1.441 1.16-.54 2.707-.54 1.629 0 2.848.528 1.218.516 1.875 1.453.656.926.656 2.121h-3.539q0-.762-.457-1.183-.457-.434-1.395-.434-.773 0-1.242.363-.457.364-.457.938 0 .55.516.89.527.34 1.781.575 1.5.28 2.543.738 1.043.445 1.652 1.242.621.797.621 2.027 0 1.114-.668 2.004-.656.88-1.886 1.383-1.219.504-2.836.504-1.711 0-2.965-.621-1.242-.633-1.899-1.617-.644-.985-.644-2.051h3.34q.036.914.656 1.36.621.433 1.594.433.902 0 1.383-.34.492-.351.492-.937 0-.364-.223-.61-.21-.258-.773-.48-.551-.223-1.57-.446zm13.983 2.403q.574 0 .984-.082v2.66q-.914.328-2.086.328-3.727 0-3.727-3.797V9.899h-1.793V7.321h1.793v-3.14h3.54v3.14h2.132v2.578h-2.133v6.129q0 .75.293 1.031.293.27.997.27zm14.228-2.519h-8.016q.2 1.183.985 1.886.785.691 2.015.691.914 0 1.688-.34.785-.351 1.336-1.042l1.699 1.957q-.668.96-1.957 1.617-1.278.656-3 .656-1.946 0-3.387-.82-1.43-.82-2.203-2.227-.762-1.406-.762-3.105v-.446q0-1.898.715-3.386.715-1.489 2.063-2.32 1.347-.844 3.187-.844 1.793 0 3.059.761 1.265.762 1.922 2.168.656 1.395.656 3.293zm-3.469-2.65q-.024-1.03-.574-1.628-.54-.598-1.617-.598-1.008 0-1.582.668-.563.668-.739 1.84h4.512zm19.923-5.073q1.934 0 2.989 1.148 1.054 1.148 1.054 3.727v8.039h-3.539V11.95q0-.797-.21-1.23-.212-.446-.61-.61-.387-.164-.984-.164-.715 0-1.219.352-.504.34-.797.972.02.082.02.27V20h-3.54v-8.015q0-.797-.21-1.242-.211-.445-.61-.621-.386-.176-.996-.176-.68 0-1.183.304-.492.293-.797.844V20h-3.539V7.32h3.316l.118 1.419q.633-.797 1.547-1.22.926-.433 2.086-.433 1.172 0 2.016.48.855.47 1.312 1.442.633-.926 1.582-1.418.961-.504 2.203-.504zM201.398 2v18h-3.187l-.176-1.359q-1.243 1.594-3.212 1.594-1.535 0-2.66-.82-1.113-.832-1.699-2.285-.574-1.454-.574-3.317v-.246q0-1.934.574-3.398.586-1.465 1.7-2.274 1.124-.808 2.683-.808 1.805 0 3.012 1.37V2.001zm-5.672 15.376q1.488 0 2.133-1.266v-4.898q-.61-1.266-2.11-1.266-1.207 0-1.77.984-.55.985-.55 2.637v.246q0 1.629.54 2.602.55.96 1.757.96z" fill="currentColor"/>
    <path d="M45 13L63 3v20z" fill="#30d475"/>
    <circle cx="30" cy="13" r="9" fill="#30d475"/>
</svg>
